# xmcd
#
# Track frame offsets:
#	150
#	19162
#	39532
#	64815
#	87457
#	103587
#	123812
#	142087
#	166357
#	186895
#	205100
#	221570
#	248642
#	267565
#
# Disc length: 3873 seconds
#
# Revision: 8
# Processed by: cddbd v1.5PL3 Copyright (c) Steve Scherf et al.
# Submitted via: Jack! The Knife 7.0
#
DISCID=cd0f1f0e,e00f1f0e
DTITLE=R.E.M. - Up
DYEAR=1998
DGENRE=Other
TTITLE0=Airportman
TTITLE1=Lotus
TTITLE2=Suspicion
TTITLE3=Hope
TTITLE4=At My Most Beautiful
TTITLE5=The Apologist
TTITLE6=Sad Professor
TTITLE7=You're In The Air
TTITLE8=Walk Unafraid
TTITLE9=Why Not Smile
TTITLE10=Daysleeper
TTITLE11=Diminished
TTITLE12=Parakeet
TTITLE13=Falls To Climb
EXTD=9362-47112-2
EXTT0=
EXTT1=
EXTT2=
EXTT3=
EXTT4=
EXTT5=
EXTT6=
EXTT7=
EXTT8=
EXTT9=
EXTT10=
EXTT11=
EXTT12=
EXTT13=
PLAYORDER=
